<svg width="58" height="58" viewBox="0 0 58 58" fill="none" xmlns="http://www.w3.org/2000/svg">
<path d="M21.75 47.125H36.25V39.875H21.75V47.125Z" fill="black" style="fill:black;fill-opacity:1;"/>
<path d="M14.5 0C12.5772 0 10.7331 0.763837 9.37348 2.12348C8.01384 3.48311 7.25 5.32718 7.25 7.25V50.75C7.25 52.6728 8.01384 54.5169 9.37348 55.8765C10.7331 57.2362 12.5772 58 14.5 58H43.5C45.4228 58 47.2669 57.2362 48.6265 55.8765C49.9862 54.5169 50.75 52.6728 50.75 50.75V7.25C50.75 5.32718 49.9862 3.48311 48.6265 2.12348C47.2669 0.763837 45.4228 0 43.5 0L14.5 0ZM27.1875 10.875H30.8125C32.0851 10.875 33.3353 10.54 34.4374 9.90364C35.5395 9.26732 36.4547 8.35211 37.091 7.25H43.5V50.75H14.5V7.25H20.909C21.5453 8.35211 22.4605 9.26732 23.5626 9.90364C24.6647 10.54 25.9149 10.875 27.1875 10.875Z" fill="black" style="fill:black;fill-opacity:1;"/>
<path d="M21 18C20.4696 18 19.9609 18.2107 19.5858 18.5858C19.2107 18.9609 19 19.4696 19 20V24C19.5304 24 20.0391 24.2107 20.4142 24.5858C20.7893 24.9609 21 25.4696 21 26C21 26.5304 20.7893 27.0391 20.4142 27.4142C20.0391 27.7893 19.5304 28 19 28V32C19 32.5304 19.2107 33.0391 19.5858 33.4142C19.9609 33.7893 20.4696 34 21 34H37C37.5304 34 38.0391 33.7893 38.4142 33.4142C38.7893 33.0391 39 32.5304 39 32V28C38.4696 28 37.9609 27.7893 37.5858 27.4142C37.2107 27.0391 37 26.5304 37 26C37 25.4696 37.2107 24.9609 37.5858 24.5858C37.9609 24.2107 38.4696 24 39 24V20C39 19.4696 38.7893 18.9609 38.4142 18.5858C38.0391 18.2107 37.5304 18 37 18H21ZM32.5 21L34 22.5L25.5 31L24 29.5L32.5 21ZM25.81 21.04C26.79 21.04 27.58 21.83 27.58 22.81C27.58 23.2794 27.3935 23.7296 27.0616 24.0616C26.7296 24.3935 26.2794 24.58 25.81 24.58C24.83 24.58 24.04 23.79 24.04 22.81C24.04 22.3406 24.2265 21.8904 24.5584 21.5584C24.8904 21.2265 25.3406 21.04 25.81 21.04ZM32.19 27.42C33.17 27.42 33.96 28.21 33.96 29.19C33.96 29.6594 33.7735 30.1096 33.4416 30.4416C33.1096 30.7735 32.6594 30.96 32.19 30.96C31.21 30.96 30.42 30.17 30.42 29.19C30.42 28.7206 30.6065 28.2704 30.9384 27.9384C31.2704 27.6065 31.7206 27.42 32.19 27.42Z" fill="black" style="fill:black;fill-opacity:1;"/>
</svg>
