<svg width="52" height="44" viewBox="0 0 52 44" fill="none" xmlns="http://www.w3.org/2000/svg">
<path fill-rule="evenodd" clip-rule="evenodd" d="M47.8651 12.5401C47.7231 12.5318 47.5719 12.5284 47.4115 12.5301H41.0838C35.9013 12.5301 31.4682 16.6099 31.4682 21.9277C31.4682 27.2455 35.9038 31.3253 41.0838 31.3253H47.4115C47.5719 31.327 47.7239 31.3236 47.8676 31.3153C48.9327 31.2511 49.9382 30.8018 50.6966 30.0512C51.455 29.3006 51.9147 28.2999 51.99 27.2355C52 27.0851 52 26.9222 52 26.7719V17.0836C52 16.9332 52 16.7703 51.99 16.62C51.9147 15.5556 51.455 14.5548 50.6966 13.8042C49.9382 13.0536 48.9302 12.6044 47.8651 12.5401ZM40.53 24.4337C41.8632 24.4337 42.9433 23.311 42.9433 21.9277C42.9433 20.5444 41.8632 19.4217 40.53 19.4217C39.1942 19.4217 38.1141 20.5444 38.1141 21.9277C38.1141 23.311 39.1942 24.4337 40.53 24.4337Z" fill="black" style="fill:black;fill-opacity:1;"/>
<path fill-rule="evenodd" clip-rule="evenodd" d="M47.409 35.0843C47.4956 35.0809 47.5818 35.0979 47.6607 35.134C47.7395 35.1701 47.8087 35.2243 47.8627 35.2921C47.9166 35.36 47.9538 35.4397 47.9712 35.5246C47.9886 35.6095 47.9857 35.6974 47.9628 35.781C47.4616 37.5653 46.6622 39.089 45.3816 40.367C43.5046 42.2466 41.1264 43.076 38.1893 43.472C35.3324 43.8554 31.6862 43.8554 27.0801 43.8554H21.7874C17.1813 43.8554 13.5325 43.8554 10.6782 43.472C7.74111 43.076 5.36289 42.244 3.48588 40.3695C1.61137 38.4925 0.779374 36.1143 0.383422 33.1773C2.98741e-07 30.3204 0 26.6741 0 22.068V21.7874C0 17.1813 2.98741e-07 13.5325 0.383422 10.6757C0.779374 7.7386 1.61137 5.36039 3.48588 3.48337C5.36289 1.60887 7.74111 0.776867 10.6782 0.380916C13.535 -1.12028e-07 17.1813 0 21.7874 0H27.0801C31.6862 0 35.3349 2.98741e-07 38.1893 0.383422C41.1264 0.779374 43.5046 1.61137 45.3816 3.48588C46.6622 4.76896 47.4616 6.29012 47.9628 8.07441C47.9857 8.15803 47.9886 8.24588 47.9712 8.33083C47.9538 8.41577 47.9166 8.49541 47.8627 8.56329C47.8087 8.63116 47.7395 8.68535 47.6607 8.72146C47.5818 8.75756 47.4956 8.77457 47.409 8.77108H41.0838C33.9742 8.77108 27.7091 14.3846 27.7091 21.9277C27.7091 29.4708 33.9742 35.0843 41.0838 35.0843H47.409ZM9.39759 10.0241C8.89911 10.0241 8.42105 10.2221 8.06857 10.5746C7.71609 10.9271 7.51807 11.4051 7.51807 11.9036C7.51807 12.4021 7.71609 12.8802 8.06857 13.2326C8.42105 13.5851 8.89911 13.7831 9.39759 13.7831H19.4217C19.9202 13.7831 20.3982 13.5851 20.7507 13.2326C21.1032 12.8802 21.3012 12.4021 21.3012 11.9036C21.3012 11.4051 21.1032 10.9271 20.7507 10.5746C20.3982 10.2221 19.9202 10.0241 19.4217 10.0241H9.39759Z" fill="black" style="fill:black;fill-opacity:1;"/>
<path d="M8 17.8C8 17.3575 8.39102 17 8.875 17H11.0625C13.2363 17 15 18.6125 15 20.6C15 22.07 14.0375 23.3325 12.6566 23.8925L14.0621 27.1025C14.2426 27.5125 14.0238 27.9775 13.5754 28.1425C13.127 28.3075 12.6184 28.1075 12.4379 27.6975L10.9066 24.2H9.75V27.4C9.75 27.8425 9.35898 28.2 8.875 28.2C8.39102 28.2 8 27.8425 8 27.4V17.8ZM9.75 22.6H11.0625C12.2711 22.6 13.25 21.705 13.25 20.6C13.25 19.495 12.2711 18.6 11.0625 18.6H9.75V22.6ZM16.75 20.2H18.9375C20.6301 20.2 22 21.4525 22 23C22 24.5475 20.6301 25.8 18.9375 25.8H17.625V28.2C17.625 28.6425 17.234 29 16.75 29C16.266 29 15.875 28.6425 15.875 28.2V21C15.875 20.5575 16.266 20.2 16.75 20.2ZM18.9375 24.2C19.6621 24.2 20.25 23.6625 20.25 23C20.25 22.3375 19.6621 21.8 18.9375 21.8H17.625V24.2H18.9375Z" fill="white" style="fill:white;fill-opacity:1;"/>
</svg>
