<svg width="62" height="62" viewBox="0 0 62 62" fill="none" xmlns="http://www.w3.org/2000/svg">
<path d="M43.9167 10.3333C46.7738 10.3333 48.9671 12.5111 50.592 14.8542L51.1423 15.6834L51.646 16.5101C51.8062 16.7805 51.9594 17.0457 52.1058 17.3057C54.1389 20.9405 55.9085 25.6861 57.0788 30.3748C58.2413 35.0274 58.8845 39.8867 58.4738 43.7074C58.0604 47.5437 56.0842 51.6667 51.6667 51.6667C47.7038 51.6667 44.5806 49.5483 42.0438 47.4791L39.1763 45.074C36.7918 43.121 34.1827 41.3333 31 41.3333C27.8173 41.3333 25.2056 43.121 22.8263 45.074L19.9588 47.4765C17.4168 49.5483 14.2936 51.6667 10.3333 51.6667C5.91325 51.6667 3.937 47.5437 3.52625 43.7074C3.11809 39.8841 3.75875 35.0274 4.92125 30.3748C6.0915 25.6861 7.86109 20.9405 9.89417 17.3057L10.354 16.5075L10.8578 15.6834L11.408 14.8542C13.0329 12.5111 15.2262 10.3333 18.0833 10.3333C19.4008 10.3333 20.7106 10.6537 21.9971 11.0308L23.529 11.501C23.7822 11.5785 24.0336 11.6526 24.2833 11.7232C26.5179 12.3638 28.8042 12.9167 31 12.9167C33.1958 12.9167 35.4821 12.3638 37.7167 11.7232L40.0029 11.0334C41.2894 10.6537 42.5992 10.3333 43.9167 10.3333ZM21.9583 20.6667C20.2455 20.6667 18.6028 21.3471 17.3916 22.5583C16.1804 23.7694 15.5 25.4121 15.5 27.125C15.5 28.8379 16.1804 30.4806 17.3916 31.6917C18.6028 32.9029 20.2455 33.5833 21.9583 33.5833C23.6712 33.5833 25.3139 32.9029 26.5251 31.6917C27.7362 30.4806 28.4167 28.8379 28.4167 27.125C28.4167 25.4121 27.7362 23.7694 26.5251 22.5583C25.3139 21.3471 23.6712 20.6667 21.9583 20.6667ZM40.0417 20.6667C39.3565 20.6667 38.6994 20.9388 38.215 21.4233C37.7305 21.9078 37.4583 22.5649 37.4583 23.25V24.5417H36.1667C35.4815 24.5417 34.8244 24.8138 34.34 25.2983C33.8555 25.7828 33.5833 26.4399 33.5833 27.125C33.5833 27.8101 33.8555 28.4672 34.34 28.9517C34.8244 29.4362 35.4815 29.7083 36.1667 29.7083H37.4583V31C37.4583 31.6851 37.7305 32.3422 38.215 32.8267C38.6994 33.3112 39.3565 33.5833 40.0417 33.5833C40.7268 33.5833 41.3839 33.3112 41.8684 32.8267C42.3528 32.3422 42.625 31.6851 42.625 31V29.7083H43.9167C44.6018 29.7083 45.2589 29.4362 45.7434 28.9517C46.2278 28.4672 46.5 27.8101 46.5 27.125C46.5 26.4399 46.2278 25.7828 45.7434 25.2983C45.2589 24.8138 44.6018 24.5417 43.9167 24.5417H42.625V23.25C42.625 22.5649 42.3528 21.9078 41.8684 21.4233C41.3839 20.9388 40.7268 20.6667 40.0417 20.6667ZM21.9583 25.8333C22.3009 25.8333 22.6295 25.9694 22.8717 26.2117C23.1139 26.4539 23.25 26.7824 23.25 27.125C23.25 27.4676 23.1139 27.7961 22.8717 28.0383C22.6295 28.2806 22.3009 28.4167 21.9583 28.4167C21.6158 28.4167 21.2872 28.2806 21.045 28.0383C20.8028 27.7961 20.6667 27.4676 20.6667 27.125C20.6667 26.7824 20.8028 26.4539 21.045 26.2117C21.2872 25.9694 21.6158 25.8333 21.9583 25.8333Z" fill="black" style="fill:black;fill-opacity:1;"/>
</svg>
