<svg width="58" height="58" viewBox="0 0 58 58" fill="none" xmlns="http://www.w3.org/2000/svg">
<path d="M21.75 47.125H36.25V39.875H21.75V47.125Z" fill="black" style="fill:black;fill-opacity:1;"/>
<path d="M14.5 0C12.5772 0 10.7331 0.763837 9.37348 2.12348C8.01384 3.48311 7.25 5.32718 7.25 7.25V50.75C7.25 52.6728 8.01384 54.5169 9.37348 55.8765C10.7331 57.2362 12.5772 58 14.5 58H43.5C45.4228 58 47.2669 57.2362 48.6265 55.8765C49.9862 54.5169 50.75 52.6728 50.75 50.75V7.25C50.75 5.32718 49.9862 3.48311 48.6265 2.12348C47.2669 0.763837 45.4228 0 43.5 0L14.5 0ZM27.1875 10.875H30.8125C32.0851 10.875 33.3353 10.54 34.4374 9.90364C35.5395 9.26732 36.4547 8.35211 37.091 7.25H43.5V50.75H14.5V7.25H20.909C21.5453 8.35211 22.4605 9.26732 23.5626 9.90364C24.6647 10.54 25.9149 10.875 27.1875 10.875Z" fill="black" style="fill:black;fill-opacity:1;"/>
<path d="M29 34C28.3 34 27.7083 33.7583 27.225 33.275C26.7417 32.7917 26.5 32.2 26.5 31.5C26.5 30.8 26.7417 30.2083 27.225 29.725C27.7083 29.2417 28.3 29 29 29C29.7 29 30.2917 29.2417 30.775 29.725C31.2583 30.2083 31.5 30.8 31.5 31.5C31.5 32.2 31.2583 32.7917 30.775 33.275C30.2917 33.7583 29.7 34 29 34ZM23.35 28.35L21.25 26.2C22.2333 25.2167 23.3877 24.4377 24.713 23.863C26.0383 23.2883 27.4673 23.0007 29 23C30.5327 22.9993 31.962 23.291 33.288 23.875C34.614 24.459 35.768 25.2507 36.75 26.25L34.65 28.35C33.9167 27.6167 33.0667 27.0417 32.1 26.625C31.1333 26.2083 30.1 26 29 26C27.9 26 26.8667 26.2083 25.9 26.625C24.9333 27.0417 24.0833 27.6167 23.35 28.35ZM19.1 24.1L17 22C18.5333 20.4333 20.325 19.2083 22.375 18.325C24.425 17.4417 26.6333 17 29 17C31.3667 17 33.575 17.4417 35.625 18.325C37.675 19.2083 39.4667 20.4333 41 22L38.9 24.1C37.6167 22.8167 36.1293 21.8127 34.438 21.088C32.7467 20.3633 30.934 20.0007 29 20C27.066 19.9993 25.2537 20.362 23.563 21.088C21.8723 21.814 20.3847 22.818 19.1 24.1Z" fill="black" style="fill:black;fill-opacity:1;"/>
</svg>
