<svg width="65" height="65" viewBox="0 0 65 65" fill="none" xmlns="http://www.w3.org/2000/svg">
<path fill-rule="evenodd" clip-rule="evenodd" d="M0.777998 25.7792C1.27614 26.2773 1.95177 26.5572 2.65625 26.5572H23.9062C24.6107 26.5572 25.2864 26.2773 25.7845 25.7792C26.2826 25.281 26.5625 24.6054 26.5625 23.9009V2.65625C26.5625 1.95177 26.2826 1.27614 25.7845 0.777998C25.2864 0.279855 24.6107 0 23.9062 0H2.65625C1.95177 0 1.27614 0.279855 0.777998 0.777998C0.279855 1.27614 0 1.95177 0 2.65625V23.9009C0 24.6054 0.279855 25.281 0.777998 25.7792ZM37.9655 25.7792C38.4636 26.2773 39.1393 26.5572 39.8438 26.5572H61.0884C61.7929 26.5572 62.4685 26.2773 62.9667 25.7792C63.4648 25.281 63.7447 24.6054 63.7447 23.9009V2.65625C63.7447 1.95177 63.4648 1.27614 62.9667 0.777998C62.4685 0.279855 61.7929 0 61.0884 0H39.8438C39.1393 0 38.4636 0.279855 37.9655 0.777998C37.4674 1.27614 37.1875 1.95177 37.1875 2.65625V23.9009C37.1875 24.6054 37.4674 25.281 37.9655 25.7792ZM0.777998 62.9667C1.27614 63.4648 1.95177 63.7447 2.65625 63.7447H23.9062C24.6107 63.7447 25.2864 63.4648 25.7845 62.9667C26.2826 62.4686 26.5625 61.7929 26.5625 61.0884V39.8384C26.5625 39.134 26.2826 38.4583 25.7845 37.9602C25.2864 37.462 24.6107 37.1822 23.9062 37.1822H2.65625C1.95177 37.1822 1.27614 37.462 0.777998 37.9602C0.279855 38.4583 0 39.134 0 39.8384V61.0884C0 61.7929 0.279855 62.4686 0.777998 62.9667Z" fill="black" style="fill:black;fill-opacity:1;"/>
<path fill-rule="evenodd" clip-rule="evenodd" d="M44.6904 39.0749C44.6904 38.2594 45.0308 37.4773 45.6365 36.9006C46.2423 36.324 47.0639 36 47.9206 36H51.1507C52.0074 36 52.829 36.324 53.4348 36.9006C54.0406 37.4773 54.3809 38.2594 54.3809 39.0749V45.2246H60.8412C61.6979 45.2246 62.5195 45.5485 63.1253 46.1252C63.731 46.7018 64.0713 47.4839 64.0713 48.2994V51.3743C64.0713 52.1898 63.731 52.9719 63.1253 53.5485C62.5195 54.1252 61.6979 54.4491 60.8412 54.4491H54.3809V60.5988C54.3809 61.4143 54.0406 62.1964 53.4348 62.7731C52.829 63.3497 52.0074 63.6737 51.1507 63.6737H47.9206C47.0639 63.6737 46.2423 63.3497 45.6365 62.7731C45.0308 62.1964 44.6904 61.4143 44.6904 60.5988V54.4491H38.2301C37.3735 54.4491 36.5519 54.1252 35.9461 53.5485C35.3403 52.9719 35 52.1898 35 51.3743V48.2994C35 47.4839 35.3403 46.7018 35.9461 46.1252C36.5519 45.5485 37.3735 45.2246 38.2301 45.2246H44.6904V39.0749Z" fill="black" style="fill:black;fill-opacity:1;"/>
</svg>
