<svg width="22" height="41" viewBox="0 0 22 41" fill="none" xmlns="http://www.w3.org/2000/svg">
<g clip-path="url(#clip0_2_6)">
<path d="M21.7298 10.7921C22.0244 11.1206 22.0817 11.482 21.9016 11.8762L8.64272 40.384C8.42992 40.7947 8.08617 41 7.61147 41C7.54599 41 7.43141 40.9836 7.26772 40.9507C6.98944 40.8686 6.78074 40.7125 6.6416 40.4826C6.50247 40.2526 6.46564 40.0062 6.53111 39.7434L11.3682 19.8347L1.39942 22.3233C1.33394 22.3397 1.23572 22.348 1.10477 22.348C0.810129 22.348 0.556409 22.2576 0.343612 22.0769C0.0489687 21.8305 -0.0574301 21.5102 0.0244151 21.116L4.95968 0.788462C5.02516 0.558494 5.15611 0.369591 5.35254 0.221755C5.54897 0.0739183 5.77814 0 6.04004 0H14.0936C14.4046 0 14.6665 0.102664 14.8793 0.307993C15.0921 0.513321 15.1985 0.755609 15.1985 1.03486C15.1985 1.16627 15.1576 1.3141 15.0758 1.47837L10.8771 12.8864L20.6003 10.4718C20.7313 10.4389 20.8295 10.4225 20.895 10.4225C21.206 10.4225 21.4842 10.5457 21.7298 10.7921Z" fill="black" style="fill:black;fill-opacity:1;"/>
</g>
<defs>
<clipPath id="clip0_2_6">
<rect width="22" height="41" fill="white" style="fill:white;fill-opacity:1;"/>
</clipPath>
</defs>
</svg>
