<svg width="58" height="58" viewBox="0 0 58 58" fill="none" xmlns="http://www.w3.org/2000/svg">
<path d="M21.75 47.125H36.25V39.875H21.75V47.125Z" fill="black" style="fill:black;fill-opacity:1;"/>
<path d="M14.5 0C12.5772 0 10.7331 0.763837 9.37348 2.12348C8.01384 3.48311 7.25 5.32718 7.25 7.25V50.75C7.25 52.6728 8.01384 54.5169 9.37348 55.8765C10.7331 57.2362 12.5772 58 14.5 58H43.5C45.4228 58 47.2669 57.2362 48.6265 55.8765C49.9862 54.5169 50.75 52.6728 50.75 50.75V7.25C50.75 5.32718 49.9862 3.48311 48.6265 2.12348C47.2669 0.763837 45.4228 0 43.5 0L14.5 0ZM27.1875 10.875H30.8125C32.0851 10.875 33.3353 10.54 34.4374 9.90364C35.5395 9.26732 36.4547 8.35211 37.091 7.25H43.5V50.75H14.5V7.25H20.909C21.5453 8.35211 22.4605 9.26732 23.5626 9.90364C24.6647 10.54 25.9149 10.875 27.1875 10.875Z" fill="black" style="fill:black;fill-opacity:1;"/>
<path d="M21 20C21 19.4469 21.4469 19 22 19H24.5C26.9844 19 29 21.0156 29 23.5C29 25.3375 27.9 26.9156 26.3219 27.6156L27.9281 31.6281C28.1344 32.1406 27.8844 32.7219 27.3719 32.9281C26.8594 33.1344 26.2781 32.8844 26.0719 32.3719L24.3219 28H23V32C23 32.5531 22.5531 33 22 33C21.4469 33 21 32.5531 21 32V20ZM23 26H24.5C25.8813 26 27 24.8813 27 23.5C27 22.1187 25.8813 21 24.5 21H23V26ZM31 23H33.5C35.4344 23 37 24.5656 37 26.5C37 28.4344 35.4344 30 33.5 30H32V33C32 33.5531 31.5531 34 31 34C30.4469 34 30 33.5531 30 33V24C30 23.4469 30.4469 23 31 23ZM33.5 28C34.3281 28 35 27.3281 35 26.5C35 25.6719 34.3281 25 33.5 25H32V28H33.5Z" fill="black" style="fill:black;fill-opacity:1;"/>
</svg>
