<svg width="36" height="60" viewBox="0 0 36 60" fill="none" xmlns="http://www.w3.org/2000/svg">
<path d="M25 38.5C25 37.6464 24.8319 36.8012 24.5052 36.0126C24.1786 35.2239 23.6998 34.5074 23.0962 33.9038C22.4926 33.3002 21.7761 32.8214 20.9874 32.4948C20.1988 32.1681 19.3536 32 18.5 32V33.3C19.5284 33.3 20.5338 33.6049 21.3889 34.1762C22.244 34.7475 22.9105 35.5596 23.3042 36.5097C23.5655 37.1407 23.7 37.817 23.7 38.5H25ZM12 37.2V33.95C12 33.7776 12.0685 33.6123 12.1904 33.4904C12.3123 33.3685 12.4776 33.3 12.65 33.3H15.9C16.0724 33.3 16.2377 33.3685 16.3596 33.4904C16.4815 33.6123 16.55 33.7776 16.55 33.95V36.55C16.55 36.7224 16.4815 36.8877 16.3596 37.0096C16.2377 37.1315 16.0724 37.2 15.9 37.2H14.6C14.6 38.5791 15.1479 39.9018 16.123 40.877C17.0982 41.8521 18.4209 42.4 19.8 42.4V41.1C19.8 40.9276 19.8685 40.7623 19.9904 40.6404C20.1123 40.5185 20.2776 40.45 20.45 40.45H23.05C23.2224 40.45 23.3877 40.5185 23.5096 40.6404C23.6315 40.7623 23.7 40.9276 23.7 41.1V44.35C23.7 44.5224 23.6315 44.6877 23.5096 44.8096C23.3877 44.9315 23.2224 45 23.05 45H19.8C15.4924 45 12 41.5075 12 37.2Z" fill="black" style="fill:black;fill-opacity:1;"/>
<path d="M22.1029 37.0076C22.299 37.4807 22.3999 37.9879 22.4 38.5H21.23C21.23 37.776 20.9424 37.0816 20.4304 36.5696C19.9184 36.0576 19.224 35.77 18.5 35.77V34.6C19.2713 34.6 20.0253 34.8288 20.6666 35.2573C21.3079 35.6859 21.8078 36.295 22.1029 37.0076Z" fill="black" style="fill:black;fill-opacity:1;"/>
<path d="M30 0H6C4.4087 0 2.88258 0.632141 1.75736 1.75736C0.632141 2.88258 0 4.4087 0 6V54C0 55.5913 0.632141 57.1174 1.75736 58.2426C2.88258 59.3679 4.4087 60 6 60H30C31.5913 60 33.1174 59.3679 34.2426 58.2426C35.3679 57.1174 36 55.5913 36 54V6C36 4.4087 35.3679 2.88258 34.2426 1.75736C33.1174 0.632141 31.5913 0 30 0ZM21 57H15V54H21V57ZM30 51H6V9H30V51Z" fill="black" style="fill:black;fill-opacity:1;"/>
<path d="M18.5 26.0614C22.6426 26.0614 26 22.9122 26 19.0307C26 15.1492 22.6426 12 18.5 12C14.3574 12 11 15.1492 11 19.0307C11 20.6214 11.5625 22.0861 12.5117 23.2637L11.082 25.9676C10.9414 26.2313 10.9854 26.5535 11.1875 26.7732C11.3896 26.9929 11.709 27.0603 11.9814 26.9431L15.4502 25.4579C16.3818 25.8446 17.4131 26.0614 18.5 26.0614ZM15.125 17.0621H15.6875C15.9453 17.0621 16.1562 17.273 16.1562 17.5308C16.1562 17.7886 15.9453 17.9995 15.6875 17.9995H15.125C14.9697 17.9995 14.8437 18.1255 14.8437 18.2807C14.8437 18.436 14.9697 18.562 15.125 18.562C15.7988 18.562 16.3437 19.1068 16.3437 19.7806C16.3437 20.4544 15.7988 20.9993 15.125 20.9993H14.375C14.1172 20.9993 13.9062 20.7884 13.9062 20.5306C13.9062 20.2728 14.1172 20.0618 14.375 20.0618H15.125C15.2803 20.0618 15.4062 19.9359 15.4062 19.7806C15.4062 19.6254 15.2803 19.4994 15.125 19.4994C14.4512 19.4994 13.9062 18.9545 13.9062 18.2807C13.9062 17.607 14.4512 17.0621 15.125 17.0621ZM20.6563 18.2807C20.6563 17.607 21.2012 17.0621 21.875 17.0621H22.4375C22.6953 17.0621 22.9062 17.273 22.9062 17.5308C22.9062 17.7886 22.6953 17.9995 22.4375 17.9995H21.875C21.7197 17.9995 21.5938 18.1255 21.5938 18.2807C21.5938 18.436 21.7197 18.562 21.875 18.562C22.5488 18.562 23.0937 19.1068 23.0937 19.7806C23.0937 20.4544 22.5488 20.9993 21.875 20.9993H21.125C20.8672 20.9993 20.6563 20.7884 20.6563 20.5306C20.6563 20.2728 20.8672 20.0618 21.125 20.0618H21.875C22.0303 20.0618 22.1562 19.9359 22.1562 19.7806C22.1562 19.6254 22.0303 19.4994 21.875 19.4994C21.2012 19.4994 20.6563 18.9545 20.6563 18.2807ZM17.7764 17.2906L18.5 18.4946L19.2236 17.2906C19.332 17.109 19.5488 17.024 19.751 17.0797C19.9531 17.1353 20.0937 17.3199 20.0937 17.5308V20.5306C20.0937 20.7884 19.8828 20.9993 19.625 20.9993C19.3672 20.9993 19.1562 20.7884 19.1562 20.5306V19.224L18.9014 19.6488C18.8164 19.7894 18.6641 19.8773 18.5 19.8773C18.3359 19.8773 18.1836 19.7894 18.0986 19.6488L17.8438 19.224V20.5306C17.8438 20.7884 17.6328 20.9993 17.375 20.9993C17.1172 20.9993 16.9063 20.7884 16.9063 20.5306V17.5308C16.9063 17.3199 17.0469 17.1353 17.249 17.0797C17.4512 17.024 17.668 17.109 17.7764 17.2906Z" fill="black" style="fill:black;fill-opacity:1;"/>
</svg>
